<?xml version="1.0" encoding="UTF-8"?>
<svg id="Layer_1" data-name="Layer 1" xmlns="http://www.w3.org/2000/svg" viewBox="0 0 2214.09 1634.72">
  <defs>
    <style>
      .cls-1 {
        fill: #5a9b89;
      }
    </style>
  </defs>
  <path class="cls-1" d="m1445.79,1439.68c9.03-1.83,17.88-3.87,26.75-6.13,96.97-24.71,171.62-72.08,194.89-123.61,5.44-12.01,7.81-23.83,7.45-35.42-30.43,55.97-100.75,107.28-194.34,140.55-9.04,3.21-18.38,6.32-27.62,9.09-51.95,16.25-104.32,25.15-158,29.39,51.07.63,101.07-3.18,150.87-13.86Zm-733.51,66.73c38.25,6.4,77.81,12.97,118.51,19.1l16.83,2.47c11.79,1.73,23.87,3.5,36.7,5.13,141.61,25.64,307.6,49.2,464.94,29.62,33.22-4.1,66.42-10.31,98.72-18.56,139.49-35.55,290.91-118.61,297.67-245.14,1.71-31.31-6.83-64.84-21.81-85.46-3.75-5.19-8.09-10.43-12.28-14.94-22.55-22.28-51.27-35.62-77.51-43.56.26.19.5.36.72.49,25.28,14.4,46.62,34.27,63.41,59.12,22.74,34.11,25.83,71.87,8.94,109.21-28.52,63.18-111.86,117.76-222.88,146.08-9.35,2.38-19.02,4.6-28.53,6.57-148.99,31.98-294.62,7.69-463.25-20.45-38.27-6.38-77.84-12.99-118.66-19.11-17.01-2.55-34.84-5.21-53.4-7.59-141.79-25.66-307.94-49.24-464.98-29.71-33.13,4.1-66.28,10.33-98.53,18.55-97.69,24.9-201.23,73.08-256.88,143.12,187.45-136.22,456.25-88.85,456.25-88.85h0c81.42,4.78,165.4,18.79,256.03,33.93Zm747.38,74.16c-34.17,8.7-69.36,15.34-104.64,19.69-163.29,20.33-333.25-3.6-478.08-29.8-12.01-1.53-23.38-3.19-34.51-4.79l-1.93-.29-16.91-2.5c-41.95-6.3-83.11-13.17-119.4-19.22-18.6-3.12-36.86-6.16-54.88-9.1,25.43,5.06,51.31,10.39,77.75,15.88,37.9,7.89,77.1,15.99,117.46,23.68l16.67,3.13c11.71,2.16,23.66,4.42,36.4,6.54,140.2,31.1,304.84,61.08,462.98,47.61,33.37-2.84,66.84-7.76,99.53-14.75,141.08-30.12,296.43-107.27,309.41-233.42.33-3.21.49-6.45.6-9.69-48.4,105.27-183.89,174.76-310.46,207.02Z"/>
  <path class="cls-1" d="m394.54,1077.44c-83.34-4.93-166.96-4.65-228.97,7.6l.58.4s-50.64,12.81,15.63,36.73c7.81,2.31,15.79,4.46,23.89,6.48h0s153.12,43.76,484.82,34.46c40.75-.67,75.09-2.99,103.64-6.05.79,0,1.58.02,2.38.03-.3-.06-.58-.13-.87-.19,81.81-8.94,115.41-24.04,115.41-24.04-72.5,7.34-194.69-16.7-194.69-16.7-.03,0-34.93-6.06-87.67-13.97-49.46-7.16-115.05-15.52-183.93-21.18l21.95-68.38,153.67,17.27c29.01-293.38-6.48-606.55-225.05-684.93,6.56,180.02-49.29,297.63-117.43,402.94h0c-.04.05-.08.12-.11.18-1.32,2.04-2.65,4.08-3.98,6.11-34.36,50.92-169.91,217.67-169.91,217.67l286.54,32.2,4.12,73.39Zm203.08-80.63l-114.51-16.64s96.4-381.2-50.4-599.44c0,0,231.46,152.18,164.91,616.08Zm1259.02-131.98c-36.26,15.84-235.8,100.55-417.48,128.34,4.66-26.77,6.65-64.46,7.5-93,72.77-12.24,145.66-21.28,183.21-25.64.91-.11,1.85-.21,2.77-.32,14.65-1.69,23.24-2.59,23.24-2.59-9.77-16.64-21.45-31.36-31.95-47.26-59.7,5.75-118.55,16.51-150.04,22.8-7.58,1.88-15.37,3.56-23.5,4.9,15.49-10.37,33.4-19.79,53.18-28.4,112.63-57.8,380.97-182.87,576.89-173.11-239.36-82.88-468.23-176.25-659.42-307.3,0,0,140.2,338.42,0,469.67,108.03-228.27-39.45-520.72-234.83-596.88,87.78,190.44,184.63,509.84,68.49,733.86,26.36-15.34,82.74-29.46,145.13-41.36,8.38,26.51,8.05,64.31,6.57,89.4-255.22,47.2-434.98,20.95-434.98,20.95,4.57-50.36,21.7-88.15,19.61-145.16,67.14,17.96,195.66,79.29,195.66,79.29,104.37-260.13,22.24-543.66-27.61-673.7-9.16-24.66-18.87-47.51-28.91-68.08,0,0-73.68-11.19-195.64-8.25-14.46-65.01-40.22-150.57-60.32-202.25-115.43-9.56-99.81,79.09-216.91,43.38,33.62,84.55,140.26,79.56,216.91,86.76l9.95,74.05c-40.45,2.13-84.98,5.84-132.91,11.84-39.5,7.71-81.7,12.73-122.31,19.33,24.5,40.74,120.44,10.02,176.12,19.57-18.93,6.24-41.54,8.8-65.12,10.4,119.61,19.7,145.65,75.28,145.65,75.28-104.72-82.21-276.23-56.32-276.23-56.32,0,0,180.11,89.35,220.17,199.39-5.01-6.22-10-12.45-14.98-18.71-36.9-43.25-121.77-129.93-224.77-151.33,0,0,278.64,367.21,117.42,596.88,89.43-68.57,183.06-51.17,214.21-42.55-22.69,80.79-18.51,218.67-18.51,218.67,288.24,11.01,507.52-46.95,724.07-107.63-69.15,38.48-146.6,68.66-234.84,88.06,2.55,2.55,19.28,4.47,24.86,5.9-109.9,19.51-508.71,88.25-625,109.17,0,0,294.04-15.3,498.28-43.51-.05,6.38-.71,14.23-2.59,23-63.08,9.27-305.31,42.9-546.46,50.48,0,0,351.48,8.42,525.2-3.26-4.15,5.77-8.98,11.58-14.63,17.34-103.89,6.42-424.05,25.6-655.91,32.89,0,0,362.75,17.36,581.27,14.92-193.56,29.79-463.73,52.86-695.01,27.9,0,0,5.69,8.64,22.02,19.61,17.18,12.97,44.11,29.02,79.6,37.27-63.56-3.1-191.24-10.76-223.43-23.41-1.48-.28-2.27-.43-2.27-.43h78.77s-62.22-76.16-143.33-98.89c39.5-31.18,135.28,9.58,178.85,16.94-14.46-24.69-37.84-40.44-68.5-48.93.05-.18.13-.33.19-.49,87.9,4.42,271.83-26.42,271.83-26.42-4.83-.83-13.65-1.65-27.4-2.45-192.12,2.95-376.73-1.6-508.81-58.71,0,0-25.17,91.45,65.94,173.55-2.31.04-4.86-.1-7.76-.52-114.1-32.83-136.46,3.1-136.46,3.1,372.67,270.53,1360.09,88.07,1360.09,88.07,7.34-138.84,168.52-123.83,176.03-262.52,0,0-29.43,6.94-57.73,7.67,85.82-44.21,180.12-79.94,273.1-116.98,0,0,16.86-37.79,17.59-64.74,114.72-89.41,251.19-157.08,383.59-228.81-116.28,38.01-233.75,94.59-357.45,149.28ZM1098.96,242.49s176.16,360.15,56.76,653.76c0,0-92-39.15-150.71-46.98,0,0,187.91-241.55,93.95-606.78Zm486,891.28s-32.6,81.95-94.43,111.04c-63.32,29.8-84.83,123.89-84.83,123.89l-257.88,36.71,231.27-60.88s17.11-78.28,94.22-112.57c78.62-34.97,111.66-98.2,111.66-98.2Zm227.15-190.61l-123.76,75.12,122.9-64.99c-.23,2.09-.51,4.3-.85,6.59l-143.71,78.41,142.33-70.53c-.49,2.42-1.06,4.85-1.71,7.24l-178.59,88.76,175.88-80.51c-1.7,4.29-3.78,8.12-6.32,11.03l-274.79,119.3,288.86-175.59s-.03,1.95-.22,5.17Z"/>
</svg>